<svg width="240" height="220" viewBox="0 0 240 220" fill="none" xmlns="http://www.w3.org/2000/svg">
<path d="M133.61 128.389V108.132M133.61 128.389H105.026M133.61 128.389V142.806M133.61 108.132C141.851 94.7111 154.577 90.8635 177.63 89.4334M133.61 108.132H2.71873M133.61 108.132C150.434 137.035 222.206 133.039 237.153 108.132M177.63 89.4334V10.9879C177.63 10.8251 177.61 10.6609 177.569 10.5033C176.469 6.26564 174.822 4.79546 170.928 3.44669C170.724 3.376 170.508 3.34121 170.292 3.34121H11.0818C10.9605 3.34121 10.8372 3.35243 10.718 3.37524C5.96158 4.28543 4.31383 6.03086 2.82053 10.4376C2.75248 10.6384 2.71873 10.8508 2.71873 11.0629V108.132M177.63 89.4334C212.284 88.6821 229.606 93.5273 237.153 108.132M2.71873 108.132V120.328C2.71873 120.507 2.74272 120.687 2.79195 120.859C3.95077 124.912 5.56779 126.7 10.6099 128.299C10.8 128.359 11.0008 128.389 11.2002 128.389H76.4417M76.4417 128.389C76.0489 140.467 71.892 145.051 60.9033 151.241M76.4417 128.389H105.026M60.9033 151.241H44.921C41.5587 151.08 40.5745 152.16 39.8015 155.148C39.7609 155.304 39.7415 155.467 39.7415 155.628V163.228C39.8982 166.69 40.68 168.096 44.921 168.407H133.61M60.9033 151.241H121.281M133.61 168.407V151.241M133.61 168.407V172.847M133.61 151.241H121.281M133.61 151.241V142.806M105.026 128.389C104.531 140.673 110.142 144.67 121.281 151.241M237.153 108.132V142.806M133.61 142.806C157.537 162.932 211.256 163.08 237.153 142.806M237.153 142.806V172.847M133.61 172.847V197.416C133.61 197.8 133.717 198.175 133.933 198.492C151.028 223.705 217.956 222.579 236.756 198.525C237.02 198.187 237.153 197.772 237.153 197.343V172.847M133.61 172.847C157.389 192.973 213.771 191.937 237.153 172.847M73.939 42.9822L59.0946 57.2557C58.2917 58.0278 58.2742 59.3071 59.0559 60.1007L73.939 75.2129M97.7671 33.0747L83.7211 83.6154M106.797 42.9822L122.443 57.2576C123.281 58.0225 123.316 59.3308 122.519 60.139L106.797 76.0907M151.541 136.49C151.541 138.108 150.166 139.42 148.47 139.42C146.774 139.42 145.399 138.108 145.399 136.49C145.399 134.872 146.774 133.56 148.47 133.56C150.166 133.56 151.541 134.872 151.541 136.49ZM151.541 166.596C151.541 168.214 150.166 169.526 148.47 169.526C146.774 169.526 145.399 168.214 145.399 166.596C145.399 164.978 146.774 163.666 148.47 163.666C150.166 163.666 151.541 164.978 151.541 166.596ZM151.541 196.703C151.541 198.321 150.166 199.633 148.47 199.633C146.774 199.633 145.399 198.321 145.399 196.703C145.399 195.085 146.774 193.773 148.47 193.773C150.166 193.773 151.541 195.085 151.541 196.703Z" stroke="black" stroke-width="5" stroke-linecap="round"/>
</svg>
