<svg width="243" height="228" viewBox="0 0 243 228" fill="none" xmlns="http://www.w3.org/2000/svg">
<path d="M195.58 162.581L193.471 161.24L195.58 162.581ZM151.671 6.52296V4.02296H150.647L149.917 4.74119L151.671 6.52296ZM125.07 32.7039L123.316 30.9222L122.57 31.6567V32.7039H125.07ZM122.57 81.1457C122.57 82.5265 123.689 83.6457 125.07 83.6457C126.451 83.6457 127.57 82.5265 127.57 81.1457H122.57ZM239.436 206.746L241.922 206.481V206.481L239.436 206.746ZM222.053 223.568L222.214 221.073H222.214L222.053 223.568ZM168.026 227.113C169.406 227.113 170.526 225.994 170.526 224.613C170.526 223.232 169.406 222.113 168.026 222.113V227.113ZM160.222 188.515C160.222 187.134 159.102 186.015 157.722 186.015C156.341 186.015 155.222 187.134 155.222 188.515H160.222ZM136.213 188.515C136.213 187.134 135.093 186.015 133.713 186.015C132.332 186.015 131.213 187.134 131.213 188.515H136.213ZM120.107 181.689C120.107 180.308 118.987 179.189 117.607 179.189C116.226 179.189 115.107 180.308 115.107 181.689H120.107ZM96.4976 138.387C96.4976 137.007 95.3783 135.887 93.9976 135.887C92.6169 135.887 91.4976 137.007 91.4976 138.387H96.4976ZM2.66296 222.113C1.28225 222.113 0.162964 223.232 0.162964 224.613C0.162964 225.994 1.28225 227.113 2.66296 227.113V222.113ZM220.708 222.919L222.561 221.241L220.708 222.919ZM191.306 190.444L189.337 191.983L189.392 192.055L189.453 192.122L191.306 190.444ZM183.265 176.096C182.414 175.008 180.843 174.816 179.755 175.666C178.667 176.517 178.475 178.088 179.325 179.175L183.265 176.096ZM195.764 165.502L194.062 167.334L195.764 165.502ZM205.726 174.759L207.428 172.928L205.726 174.759ZM238.814 205.505L237.112 207.336L237.112 207.336L238.814 205.505ZM44.1224 15.4503H46.6224V12.7117L43.8952 12.9606L44.1224 15.4503ZM83.6812 54.1734L86.1795 54.2659L86.2755 51.6734H83.6812V54.1734ZM18.7713 84.3997L17.0229 86.1865L17.0898 86.2521L17.1615 86.3124L18.7713 84.3997ZM57.0765 2.91401L56.7964 0.42976L54.5765 0.680117V2.91401H57.0765ZM57.0765 44.0051H54.5765V46.5051H57.0765V44.0051ZM97.4711 44.0051V46.5051H99.9711V44.0051H97.4711ZM137.499 130.416C136.519 129.443 134.936 129.449 133.963 130.429C132.991 131.408 132.996 132.991 133.976 133.964L137.499 130.416ZM144.468 140.857L142.707 142.631L144.468 140.857ZM147.314 140.83L149.109 142.569L147.314 140.83ZM166.046 125.088C167.007 124.097 166.982 122.514 165.99 121.553C164.998 120.592 163.416 120.617 162.455 121.609L166.046 125.088ZM174.298 35.0047C172.917 35.0047 171.798 36.124 171.798 37.5047C171.798 38.8854 172.917 40.0047 174.298 40.0047V35.0047ZM219.49 40.0047C220.871 40.0047 221.99 38.8854 221.99 37.5047C221.99 36.124 220.871 35.0047 219.49 35.0047V40.0047ZM143.963 54.6603C142.582 54.6603 141.463 55.7796 141.463 57.1603C141.463 58.541 142.582 59.6603 143.963 59.6603V54.6603ZM219.49 59.6603C220.871 59.6603 221.99 58.541 221.99 57.1603C221.99 55.7796 220.871 54.6603 219.49 54.6603V59.6603ZM174.298 73.6968C172.917 73.6968 171.798 74.8161 171.798 76.1968C171.798 77.5776 172.917 78.6968 174.298 78.6968V73.6968ZM219.49 78.6968C220.871 78.6968 221.99 77.5776 221.99 76.1968C221.99 74.8161 220.871 73.6968 219.49 73.6968V78.6968ZM201.691 93.9715C200.311 93.9715 199.191 95.0908 199.191 96.4715C199.191 97.8522 200.311 98.9715 201.691 98.9715V93.9715ZM219.49 98.9715C220.871 98.9715 221.99 97.8522 221.99 96.4715C221.99 95.0908 220.871 93.9715 219.49 93.9715V98.9715ZM209.12 113.472C207.74 113.472 206.62 114.592 206.62 115.972C206.62 117.353 207.74 118.472 209.12 118.472V113.472ZM219.49 118.472C220.871 118.472 221.99 117.353 221.99 115.972C221.99 114.592 220.871 113.472 219.49 113.472V118.472ZM209.894 133.283C208.513 133.283 207.394 134.402 207.394 135.783C207.394 137.163 208.513 138.283 209.894 138.283V133.283ZM219.49 138.283C220.871 138.283 221.99 137.163 221.99 135.783C221.99 134.402 220.871 133.283 219.49 133.283V138.283ZM148.131 188.663V186.163C118.48 186.163 94.4439 162.127 94.4439 132.476H91.9439H89.4439C89.4439 164.888 115.719 191.163 148.131 191.163V188.663ZM91.9439 132.476H94.4439C94.4439 102.826 118.48 78.7891 148.131 78.7891V76.2891V73.7891C115.719 73.7891 89.4439 100.064 89.4439 132.476H91.9439ZM148.131 76.2891V78.7891C177.781 78.7891 201.818 102.826 201.818 132.476H204.318H206.818C206.818 100.064 180.543 73.7891 148.131 73.7891V76.2891ZM204.318 132.476H201.818C201.818 143.063 198.756 152.927 193.471 161.24L195.58 162.581L197.69 163.923C203.47 154.831 206.818 144.041 206.818 132.476H204.318ZM195.58 162.581L193.471 161.24C183.942 176.227 167.196 186.163 148.131 186.163V188.663V191.163C168.977 191.163 187.282 180.292 197.69 163.923L195.58 162.581ZM195.58 162.581V165.081H238.685V162.581V160.081H195.58V162.581ZM191.186 131.353H188.686C188.686 153.751 170.529 171.908 148.131 171.908V174.408V176.908C173.291 176.908 193.686 156.512 193.686 131.353H191.186ZM148.131 174.408V171.908C125.733 171.908 107.575 153.751 107.575 131.353H105.075H102.575C102.575 156.512 122.971 176.908 148.131 176.908V174.408ZM105.075 131.353H107.575C107.575 108.955 125.733 90.7972 148.131 90.7972V88.2972V85.7972C122.971 85.7972 102.575 106.193 102.575 131.353H105.075ZM148.131 88.2972V90.7972C170.529 90.7972 188.686 108.955 188.686 131.353H191.186H193.686C193.686 106.193 173.291 85.7972 148.131 85.7972V88.2972ZM197.125 162.037V164.537H238.434V162.037V159.537H197.125V162.037ZM240.434 160.037H242.934V8.52296H240.434H237.934V160.037H240.434ZM238.434 6.52296V4.02296H151.671V6.52296V9.02296H238.434V6.52296ZM151.671 6.52296L149.917 4.74119L123.316 30.9222L125.07 32.7039L126.824 34.4857L153.425 8.30474L151.671 6.52296ZM125.07 32.7039H122.57V81.1457H125.07H127.57V32.7039H125.07ZM125.07 32.7039V35.2039H149.671V32.7039V30.2039H125.07V32.7039ZM151.671 30.7039H154.171V6.52296H151.671H149.171V30.7039H151.671ZM239.436 206.746L236.95 207.011C237.725 214.274 236.786 217.518 235.035 219.116C234.143 219.931 232.79 220.561 230.652 220.911C228.502 221.263 225.739 221.301 222.214 221.073L222.053 223.568L221.892 226.063C225.56 226.3 228.759 226.287 231.459 225.845C234.172 225.402 236.557 224.497 238.406 222.809C242.139 219.402 242.699 213.771 241.922 206.481L239.436 206.746ZM157.722 224.613V227.113H168.026V224.613V222.113H157.722V224.613ZM157.722 224.613H160.222V188.515H157.722H155.222V224.613H157.722ZM133.713 224.613V227.113H157.722V224.613V222.113H133.713V224.613ZM133.713 224.613H136.213V188.515H133.713H131.213V224.613H133.713ZM117.607 224.613V227.113H133.713V224.613V222.113H117.607V224.613ZM117.607 224.613H120.107V181.689H117.607H115.107V224.613H117.607ZM93.9976 224.613V227.113H117.607V224.613V222.113H93.9976V224.613ZM93.9976 224.613H96.4976V138.387H93.9976H91.4976V224.613H93.9976ZM77.9915 224.613V227.113H93.9976V224.613V222.113H77.9915V224.613ZM77.9915 224.613H80.4915V116.571H77.9915H75.4915V224.613H77.9915ZM75.9915 114.571V112.071H56.4826V114.571V117.071H75.9915V114.571ZM54.4826 224.613V227.113H77.9915V224.613V222.113H54.4826V224.613ZM54.4826 116.571H51.9826V224.613H54.4826H56.9826V116.571H54.4826ZM38.0764 224.613V227.113H54.4826V224.613V222.113H38.0764V224.613ZM38.0764 224.613H40.5764V147.783H38.0764H35.5764V224.613H38.0764ZM36.0764 145.783V143.283H16.0673V145.783V148.283H36.0764V145.783ZM2.66296 224.613V227.113H14.0673V224.613V222.113H2.66296V224.613ZM14.0673 224.613V227.113H38.0764V224.613V222.113H14.0673V224.613ZM14.0673 147.783H11.5673V224.613H14.0673H16.5673V147.783H14.0673ZM220.708 222.919L222.561 221.241L193.16 188.766L191.306 190.444L189.453 192.122L218.855 224.596L220.708 222.919ZM191.306 190.444L193.276 188.904L183.265 176.096L181.295 177.636L179.325 179.175L189.337 191.983L191.306 190.444ZM195.764 165.502L194.062 167.334L204.024 176.591L205.726 174.759L207.428 172.928L197.466 163.671L195.764 165.502ZM205.726 174.759L204.024 176.591L237.112 207.336L238.814 205.505L240.515 203.674L207.428 172.928L205.726 174.759ZM191.306 190.444L193.147 192.136L207.567 176.452L205.726 174.759L203.886 173.067L189.466 188.752L191.306 190.444ZM16.0673 145.783V143.283C13.582 143.283 11.5673 145.298 11.5673 147.783H14.0673H16.5673C16.5673 148.059 16.3434 148.283 16.0673 148.283V145.783ZM38.0764 147.783H40.5764C40.5764 145.298 38.5617 143.283 36.0764 143.283V145.783V148.283C35.8002 148.283 35.5764 148.059 35.5764 147.783H38.0764ZM77.9915 116.571H80.4915C80.4915 114.086 78.4768 112.071 75.9915 112.071V114.571V117.071C75.7154 117.071 75.4915 116.847 75.4915 116.571H77.9915ZM222.053 223.568L222.214 221.073C222.351 221.082 222.471 221.141 222.561 221.241L220.708 222.919L218.855 224.596C219.636 225.459 220.729 225.988 221.892 226.063L222.053 223.568ZM239.436 206.746L241.922 206.481C241.807 205.407 241.304 204.406 240.515 203.674L238.814 205.505L237.112 207.336C237.02 207.251 236.964 207.141 236.95 207.012L239.436 206.746ZM240.434 8.52296H242.934C242.934 6.03768 240.92 4.02296 238.434 4.02296V6.52296V9.02296C238.158 9.02296 237.934 8.79911 237.934 8.52296H240.434ZM149.671 32.7039V35.2039C152.156 35.2039 154.171 33.1892 154.171 30.7039H151.671H149.171C149.171 30.4278 149.395 30.2039 149.671 30.2039V32.7039ZM238.434 162.037V164.537C240.92 164.537 242.934 162.523 242.934 160.037H240.434H237.934C237.934 159.761 238.158 159.537 238.434 159.537V162.037ZM56.4826 114.571V112.071C53.9973 112.071 51.9826 114.086 51.9826 116.571H54.4826H56.9826C56.9826 116.847 56.7587 117.071 56.4826 117.071V114.571ZM197.125 162.037V159.537C193.036 159.537 191.067 164.55 194.062 167.334L195.764 165.502L197.466 163.671C197.521 163.722 197.585 163.822 197.611 163.948C197.633 164.059 197.618 164.152 197.591 164.22C197.564 164.289 197.512 164.367 197.42 164.433C197.315 164.508 197.201 164.537 197.125 164.537V162.037ZM44.1224 15.4503H41.6224V54.1734H44.1224H46.6224V15.4503H44.1224ZM44.1224 54.1734V56.6734H83.6812V54.1734V51.6734H44.1224V54.1734ZM83.6812 54.1734L81.1829 54.0808C80.5885 70.1318 71.8906 82.7646 60.1882 88.6239C48.5542 94.4489 33.7093 93.7037 20.3811 82.4869L18.7713 84.3997L17.1615 86.3124C31.9702 98.7752 48.9535 99.8408 62.4268 93.0948C75.8318 86.383 85.5204 72.0629 86.1795 54.2659L83.6812 54.1734ZM18.7713 84.3997L20.5198 82.6128C8.25867 70.6154 5.68665 55.2462 10.3412 42.5313C14.9972 29.8125 26.9693 19.5259 44.3496 17.9399L44.1224 15.4503L43.8952 12.9606C24.6417 14.7176 10.9841 26.2302 5.64592 40.8125C0.306291 55.3988 3.37562 72.8328 17.0229 86.1865L18.7713 84.3997ZM44.1224 54.1734L42.2069 52.5668L16.8558 82.7931L18.7713 84.3997L20.6868 86.0062L46.0379 55.7799L44.1224 54.1734ZM57.0765 2.91401H54.5765V44.0051H57.0765H59.5765V2.91401H57.0765ZM57.0765 44.0051V46.5051H97.4711V44.0051V41.5051H57.0765V44.0051ZM97.4711 44.0051H99.9711C99.9711 16.4348 76.91 -1.83872 56.7964 0.42976L57.0765 2.91401L57.3567 5.39826C74.2947 3.48795 94.9711 19.2016 94.9711 44.0051H97.4711ZM135.737 132.19L133.976 133.964L142.707 142.631L144.468 140.857L146.229 139.083L137.499 130.416L135.737 132.19ZM147.314 140.83L149.109 142.569L166.046 125.088L164.25 123.349L162.455 121.609L145.518 139.09L147.314 140.83ZM144.468 140.857L142.707 142.631C144.486 144.397 147.365 144.369 149.109 142.569L147.314 140.83L145.518 139.09C145.712 138.89 146.032 138.887 146.229 139.083L144.468 140.857ZM174.298 37.5047V40.0047H219.49V37.5047V35.0047H174.298V37.5047ZM143.963 57.1603V59.6603H219.49V57.1603V54.6603H143.963V57.1603ZM174.298 76.1968V78.6968H219.49V76.1968V73.6968H174.298V76.1968ZM201.691 96.4715V98.9715H219.49V96.4715V93.9715H201.691V96.4715ZM209.12 115.972V118.472H219.49V115.972V113.472H209.12V115.972ZM209.894 135.783V138.283H219.49V135.783V133.283H209.894V135.783Z" fill="black"/>
</svg>
