<svg width="251" height="259" viewBox="0 0 251 259" fill="none" xmlns="http://www.w3.org/2000/svg">
<path d="M221.279 7.19546H248.363M221.279 21.7566H248.363M221.279 36.3178H248.363M2.86145 61.0718H248.363M141.738 139.069C157.195 96.3979 212.059 109.025 212.059 147.342C212.059 190.231 151.535 195.674 141.738 156.269M3.49133 110.985V93.7854C4.59727 87.5786 6.39854 85.359 12.8529 84.8592H71.635C78.2529 85.2949 80.5848 87.1966 82.0851 93.7854V162.147C80.4727 169.254 77.6824 170.732 71.635 171.944H12.8529C5.92433 170.557 4.47786 167.962 3.49133 162.147V126.007M41.2217 108.691H64.186M41.2217 128.394H64.186M41.2217 148.776H64.186M22.1062 108.691H24.2351M22.1062 128.394H24.2351M22.1062 148.776H24.2351M25.767 197.93H12.6899C7.29722 199.516 5.5252 201.421 4.10204 206.225V246.529C4.79611 252.269 6.72974 254.172 12.6899 255.41H72.7079C78.7072 253.925 80.8936 252.024 82.4669 246.529V206.225C80.0344 200.621 77.8526 198.886 72.7079 197.93H40.1128M25.767 226.523H59.9236M2.58612 23.973V5.26301C2.58612 4.38573 3.14439 3.94709 4.26093 3.94709H7.89764C9.01418 3.94709 9.57245 4.38573 9.57245 5.26301V23.7337C9.57245 28.0403 10.2025 30.736 11.4626 31.8206C12.7386 32.8893 14.1742 33.4236 15.7692 33.4236C17.3643 33.4236 18.7918 32.8893 20.0519 31.8206C21.328 30.736 21.966 28.0403 21.966 23.7337V5.26301C21.966 4.38573 22.5243 3.94709 23.6408 3.94709H27.2775C28.3941 3.94709 28.9523 4.38573 28.9523 5.26301V23.973C28.9523 29.5556 27.772 33.4715 25.4113 35.7205C23.0506 37.9536 19.8366 39.0701 15.7692 39.0701C11.7018 39.0701 8.48781 37.9536 6.12714 35.7205C3.76646 33.4715 2.58612 29.5556 2.58612 23.973ZM38.2834 38.2567C37.1668 38.2567 36.6086 37.6585 36.6086 36.4622V5.74152C36.6086 4.54523 37.1668 3.94709 38.2834 3.94709H41.9201C43.0366 3.94709 43.5949 4.54523 43.5949 5.74152V36.4622C43.5949 37.6585 43.0366 38.2567 41.9201 38.2567H38.2834ZM48.7629 47.3006C48.0132 47.0135 47.8138 46.4233 48.1647 45.5301L64.0515 4.13849C64.4024 3.24526 64.9447 2.9422 65.6784 3.22931L67.6164 3.97101C68.3661 4.25812 68.5655 4.84829 68.2145 5.74152L52.3278 47.1331C51.9769 48.0264 51.4346 48.3294 50.7009 48.0423L48.7629 47.3006ZM88.4797 23.973V5.26301C88.4797 4.38573 89.0379 3.94709 90.1545 3.94709H93.7912C94.9077 3.94709 95.466 4.38573 95.466 5.26301V23.7337C95.466 28.0403 96.096 30.736 97.3561 31.8206C98.6322 32.8893 100.068 33.4236 101.663 33.4236C103.258 33.4236 104.685 32.8893 105.945 31.8206C107.222 30.736 107.86 28.0403 107.86 23.7337V5.26301C107.86 4.38573 108.418 3.94709 109.534 3.94709H113.171C114.288 3.94709 114.846 4.38573 114.846 5.26301V23.973C114.846 29.5556 113.666 33.4715 111.305 35.7205C108.944 37.9536 105.73 39.0701 101.663 39.0701C97.5954 39.0701 94.3814 37.9536 92.0207 35.7205C89.66 33.4715 88.4797 29.5556 88.4797 23.973ZM122.646 38.2567C121.114 38.2567 120.811 37.5708 121.737 36.199L132.336 20.5516L122.598 6.0047C121.673 4.63296 121.976 3.94709 123.507 3.94709H128.34C129.185 3.94709 129.903 4.41763 130.493 5.35871L137.025 15.6946L143.557 5.35871C144.147 4.41763 144.865 3.94709 145.71 3.94709H150.543C152.074 3.94709 152.377 4.63296 151.452 6.0047L141.691 20.5516L152.314 36.199C153.239 37.5708 152.936 38.2567 151.404 38.2567H146.5C145.67 38.2567 144.952 37.7861 144.346 36.845L137.025 25.4085L129.704 36.845C129.098 37.7861 128.38 38.2567 127.55 38.2567H122.646ZM105.474 92.2182C107.198 87.1064 109.006 85.344 113.818 84.6609H237.952C238.097 84.6609 238.243 84.6768 238.384 84.7087C243.352 85.8306 245.662 87.3086 247.895 92.1351C248.013 92.3897 248.071 92.6689 248.071 92.9494V248.131C248.071 248.452 247.995 248.769 247.844 249.052C245.458 253.522 243.434 255.285 238.17 255.9H114.122C113.92 255.9 113.718 255.869 113.525 255.808C108.698 254.276 106.625 252.862 105.448 248.884C105.396 248.71 105.372 248.528 105.372 248.347V92.8438C105.372 92.6319 105.406 92.419 105.474 92.2182ZM142.127 232.685H211.97C218.944 232.685 224.597 227.032 224.597 220.058V216.228C224.597 209.254 218.944 203.6 211.97 203.6H142.127C135.153 203.6 129.5 209.254 129.5 216.228V220.058C129.5 227.032 135.153 232.685 142.127 232.685Z" stroke="black" stroke-width="5" stroke-linecap="round"/>
</svg>
