<svg width="181" height="233" viewBox="0 0 181 233" fill="none" xmlns="http://www.w3.org/2000/svg">
<path d="M122.076 2.70961C125.175 3.44702 126.812 4.13555 127.806 5.05727C128.683 5.86982 129.361 7.16078 129.662 9.96449L129.637 28.2809L129.558 85.2321L129.555 87.736H137.814L139.131 95.2018C139.374 96.5769 140.24 97.7564 141.466 98.402L141.716 98.5241L149.068 101.832C150.398 102.43 151.929 102.345 153.178 101.617L153.424 101.463L160.33 96.8209L168.455 104.489L163.935 112.022C163.257 113.153 163.111 114.519 163.526 115.761L163.616 116.008L166.547 123.337C167.111 124.746 168.344 125.769 169.817 126.073L170.115 126.124L178.153 127.224V137.778L169.88 139.478C168.459 139.77 167.273 140.727 166.682 142.039L166.572 142.305L163.576 150.296C163.113 151.529 163.216 152.899 163.847 154.046L163.98 154.271L168.388 161.278L160.369 168.394L154.599 164.585L154.366 164.441C153.259 163.803 151.931 163.666 150.717 164.064L150.459 164.158L141.898 167.557C140.531 168.1 139.522 169.273 139.182 170.692L139.124 170.979L137.803 178.68H130.408V222.982C129.171 226.165 128.091 227.776 126.958 228.717C125.877 229.615 124.473 230.132 122.01 230.476H10.5319C7.62442 229.75 6.21138 228.892 5.32874 227.934C4.40076 226.927 3.78744 225.53 3.02991 223.072V10.2643C4.21618 7.04692 5.29347 5.44844 6.43811 4.51527C7.55028 3.60866 9.02101 3.0867 11.6031 2.70961H122.076ZM147.603 133.208C147.603 141.492 140.887 148.207 132.603 148.208C124.319 148.208 117.603 141.492 117.603 133.208C117.603 124.923 124.319 118.208 132.603 118.208C140.887 118.208 147.603 124.924 147.603 133.208ZM152.603 133.208C152.603 122.162 143.649 113.208 132.603 113.208C121.557 113.208 112.603 122.162 112.603 133.208C112.603 144.253 121.557 153.208 132.603 153.208C143.649 153.207 152.603 144.253 152.603 133.208Z" stroke="black" stroke-width="5" stroke-linecap="round"/>
</svg>
